<?xml version="1.0" encoding="utf-8"?>
<!-- Generator: Adobe Illustrator 24.2.3, SVG Export Plug-In . SVG Version: 6.00 Build 0)  -->
<svg version="1.1" id="Layer_1" xmlns="http://www.w3.org/2000/svg" xmlns:xlink="http://www.w3.org/1999/xlink" x="0px" y="0px"
	 viewBox="0 0 1919.8 1178.3" style="enable-background:new 0 0 1919.8 1178.3;" xml:space="preserve">
<style type="text/css">
	.st0{enable-background:new    ;}
	.st1{fill:rgb(200,200,200);}
</style>
<g class="st0">
	<path class="st1" d="M226.4,470.5c0,21-3.4,37.2-10.3,48.6c-6.9,11.4-15.9,19.7-27.1,24.9s-24,8.3-38.4,9.2
		c-14.3,0.9-29,1.3-44,1.3v436.8H46.8V84.1h59.9c29.9,0,53,2.8,69.2,8.4c16.2,5.6,28.1,12.6,35.6,21c7.5,8.4,11.8,17.5,13.1,27.3
		c1.2,9.8,1.9,18.9,1.9,27.3V470.5z M166.5,168.1c0-8.4-1-14.9-3-19.4c-2-4.5-5.4-7.9-10.1-10c-4.7-2.1-10.8-3.3-18.5-3.7
		c-7.6-0.3-17.1-0.5-28.3-0.5v369.6c7.5,0,14.8-0.2,22-0.5c7.2-0.3,13.6-1.6,19.2-3.7c5.6-2.1,10.1-5.4,13.6-10
		c3.4-4.5,5.1-11,5.1-19.4V168.1z"/>
	<path class="st1" d="M450.9,907.3c0,4.2-0.5,11.8-1.4,22.8s-4.2,22.3-9.8,33.9c-5.6,11.5-14.5,21.8-26.7,30.7
		c-12.2,8.9-29.5,13.4-51.9,13.4s-39.8-4.5-51.9-13.4c-12.2-8.9-21-19.2-26.7-30.7c-5.6-11.5-8.9-22.8-9.8-33.9s-1.4-18.6-1.4-22.8
		V168.1c0-2.8,0.2-7,0.5-12.6c0.3-5.6,1.2-11.8,2.8-18.6c1.6-6.8,4.2-13.8,8-21c3.7-7.2,8.9-13.7,15.4-19.7
		c6.5-5.9,15-10.8,25.3-14.4s22.9-5.5,37.9-5.5s27.6,1.8,37.9,5.5s18.7,8.5,25.3,14.4c6.5,6,11.7,12.5,15.4,19.7
		c3.7,7.2,6.4,14.2,8,21c1.6,6.8,2.5,13,2.8,18.6c0.3,5.6,0.5,9.8,0.5,12.6V907.3z M331.2,907.3c0,4.2,0.2,9.2,0.5,15
		c0.3,5.8,1.4,11.3,3.3,16.5s4.8,9.7,8.9,13.4c4,3.7,9.8,5.5,17.3,5.5s13.3-1.8,17.3-5.5c4-3.7,7-8.1,8.9-13.4s3-10.8,3.3-16.5
		c0.3-5.8,0.5-10.8,0.5-15V168.1c0-4.2-0.2-8.7-0.5-13.6c-0.3-4.9-1.4-9.4-3.3-13.4c-1.9-4-4.8-7.4-8.9-10.2
		c-4.1-2.8-9.8-4.2-17.3-4.2s-13.3,1.4-17.3,4.2c-4.1,2.8-7,6.2-8.9,10.2c-1.9,4-3,8.5-3.3,13.4c-0.3,4.9-0.5,9.4-0.5,13.6V907.3z"
		/>
	<path class="st1" d="M690.4,453.7c0,25.2-3.7,42.7-11.2,52.5c-7.5,9.8-18.7,14.7-33.7,14.7c7.5,0,14,1.9,19.6,5.8
		c5.6,3.9,10.3,8.9,14,15.2c3.7,6.3,6.5,13.5,8.4,21.5c1.9,8.1,2.8,16.3,2.8,24.7v403.2h-59.9v-420c0-8.4-1.7-14.9-5.1-19.4
		c-3.4-4.5-8-7.9-13.6-10c-5.6-2.1-12-3.3-19.2-3.7c-7.2-0.3-14.5-0.5-22-0.5v453.6h-59.9V84.1h59.9c15,0,29.6,0.4,44,1.3
		c14.3,0.9,27.1,3.9,38.4,9.2c11.2,5.2,20.3,13.6,27.1,24.9c6.9,11.4,10.3,27.6,10.3,48.6V453.7z M630.6,168.1c0-8.4-1-14.9-3-19.4
		c-2-4.5-5.4-7.9-10.1-10c-4.7-2.1-10.8-3.3-18.5-3.7c-7.6-0.3-17.1-0.5-28.3-0.5v369.6c7.5,0,14.8-0.2,22-0.5
		c7.2-0.3,13.6-1.6,19.2-3.7c5.6-2.1,10.1-5.4,13.6-10c3.4-4.5,5.1-11,5.1-19.4V168.1z"/>
	<path class="st1" d="M915,84.1v50.4h-59.9v856.8h-59.9V134.5h-59.9V84.1H915z"/>
	<path class="st1" d="M1094.6,134.5h-74.8v336h59.9v50.4h-59.9v470.4h-59.9V84.1h134.7V134.5z"/>
	<path class="st1" d="M1319.1,907.3c0,4.2-0.5,11.8-1.4,22.8s-4.2,22.3-9.8,33.9c-5.6,11.5-14.5,21.8-26.7,30.7
		c-12.2,8.9-29.5,13.4-51.9,13.4s-39.8-4.5-51.9-13.4c-12.2-8.9-21-19.2-26.7-30.7c-5.6-11.5-8.9-22.8-9.8-33.9s-1.4-18.6-1.4-22.8
		V168.1c0-2.8,0.2-7,0.5-12.6c0.3-5.6,1.2-11.8,2.8-18.6c1.6-6.8,4.2-13.8,8-21c3.7-7.2,8.9-13.7,15.4-19.7
		c6.5-5.9,15-10.8,25.3-14.4s22.9-5.5,37.9-5.5s27.6,1.8,37.9,5.5s18.7,8.5,25.3,14.4c6.5,6,11.7,12.5,15.4,19.7
		c3.7,7.2,6.4,14.2,8,21c1.6,6.8,2.5,13,2.8,18.6c0.3,5.6,0.5,9.8,0.5,12.6V907.3z M1199.4,907.3c0,4.2,0.2,9.2,0.5,15
		c0.3,5.8,1.4,11.3,3.3,16.5s4.8,9.7,8.9,13.4c4,3.7,9.8,5.5,17.3,5.5s13.3-1.8,17.3-5.5c4-3.7,7-8.1,8.9-13.4s3-10.8,3.3-16.5
		c0.3-5.8,0.5-10.8,0.5-15V168.1c0-4.2-0.2-8.7-0.5-13.6c-0.3-4.9-1.4-9.4-3.3-13.4c-1.9-4-4.8-7.4-8.9-10.2
		c-4.1-2.8-9.8-4.2-17.3-4.2s-13.3,1.4-17.3,4.2c-4.1,2.8-7,6.2-8.9,10.2c-1.9,4-3,8.5-3.3,13.4c-0.3,4.9-0.5,9.4-0.5,13.6V907.3z"
		/>
	<path class="st1" d="M1438.9,84.1v856.8h59.9v50.4H1379V84.1H1438.9z"/>
	<path class="st1" d="M1626,84.1v907.2h-59.9V84.1H1626z"/>
	<path class="st1" d="M1873,907.3c0,4.2-0.5,11.8-1.4,22.8s-4.2,22.3-9.8,33.9c-5.6,11.5-14.5,21.8-26.7,30.7
		c-12.2,8.9-29.5,13.4-51.9,13.4s-39.8-4.5-51.9-13.4c-12.2-8.9-21-19.2-26.7-30.7c-5.6-11.5-8.9-22.8-9.8-33.9s-1.4-18.6-1.4-22.8
		V168.1c0-2.8,0.2-7,0.5-12.6c0.3-5.6,1.2-11.8,2.8-18.6c1.6-6.8,4.2-13.8,8-21c3.7-7.2,8.9-13.7,15.4-19.7
		c6.5-5.9,15-10.8,25.3-14.4s22.9-5.5,37.9-5.5s27.6,1.8,37.9,5.5s18.7,8.5,25.3,14.4c6.5,6,11.7,12.5,15.4,19.7
		c3.7,7.2,6.4,14.2,8,21c1.6,6.8,2.5,13,2.8,18.6c0.3,5.6,0.5,9.8,0.5,12.6V907.3z M1753.2,907.3c0,4.2,0.2,9.2,0.5,15
		c0.3,5.8,1.4,11.3,3.3,16.5s4.8,9.7,8.9,13.4c4,3.7,9.8,5.5,17.3,5.5s13.3-1.8,17.3-5.5c4-3.7,7-8.1,8.9-13.4s3-10.8,3.3-16.5
		c0.3-5.8,0.5-10.8,0.5-15V168.1c0-4.2-0.2-8.7-0.5-13.6c-0.3-4.9-1.4-9.4-3.3-13.4c-1.9-4-4.8-7.4-8.9-10.2
		c-4.1-2.8-9.8-4.2-17.3-4.2s-13.3,1.4-17.3,4.2c-4.1,2.8-7,6.2-8.9,10.2c-1.9,4-3,8.5-3.3,13.4c-0.3,4.9-0.5,9.4-0.5,13.6V907.3z"
		/>
</g>
</svg>
