<?xml version="1.0" encoding="utf-8"?>
<!-- Generator: Adobe Illustrator 24.2.3, SVG Export Plug-In . SVG Version: 6.00 Build 0)  -->
<svg version="1.1" id="Layer_1" xmlns="http://www.w3.org/2000/svg" xmlns:xlink="http://www.w3.org/1999/xlink" x="0px" y="0px"
	 viewBox="0 0 500 500" style="enable-background:new 0 0 500 500;" xml:space="preserve">
<style type="text/css">
	.st0{fill:#FFFFFF;}
</style>
<g>
	<path class="st0" d="M105,86c10.5,0,19,8.5,19,19s-8.5,19-19,19s-19-8.5-19-19S94.5,86,105,86 M105,56c-27.1,0-49,21.9-49,49
		s21.9,49,49,49s49-21.9,49-49S132.1,56,105,56L105,56z"/>
</g>
<g>
	<path class="st0" d="M200,181c10.5,0,19,8.5,19,19s-8.5,19-19,19s-19-8.5-19-19S189.5,181,200,181 M200,151c-27.1,0-49,21.9-49,49
		s21.9,49,49,49s49-21.9,49-49S227.1,151,200,151L200,151z"/>
</g>
<g>
	<path class="st0" d="M296,277c10.5,0,19,8.5,19,19s-8.5,19-19,19s-19-8.5-19-19S285.5,277,296,277 M296,247c-27.1,0-49,21.9-49,49
		s21.9,49,49,49s49-21.9,49-49S323.1,247,296,247L296,247z"/>
</g>
<g>
	<path class="st0" d="M391,372c10.5,0,19,8.5,19,19s-8.5,19-19,19s-19-8.5-19-19S380.5,372,391,372 M391,342c-27.1,0-49,21.9-49,49
		s21.9,49,49,49s49-21.9,49-49S418.1,342,391,342L391,342z"/>
</g>
</svg>
