<?xml version="1.0" encoding="utf-8"?>
<!-- Generator: Adobe Illustrator 24.2.3, SVG Export Plug-In . SVG Version: 6.00 Build 0)  -->
<svg version="1.1" id="Layer_1" xmlns="http://www.w3.org/2000/svg" xmlns:xlink="http://www.w3.org/1999/xlink" x="0px" y="0px"
	 viewBox="0 0 500 500" style="enable-background:new 0 0 500 500;" xml:space="preserve">
<style type="text/css">
	.st0{fill:#FFFFFF;}
</style>
<path class="st0" d="M248.5,125c-68.2,0-123.5,55.3-123.5,123.5c0,68.2,55.3,123.5,123.5,123.5c68.2,0,123.5-55.3,123.5-123.5
	C372,180.3,316.7,125,248.5,125L248.5,125z M305.2,303.1c-2.2,3.6-7,4.8-10.6,2.6c-29-17.7-65.5-21.7-108.5-11.9
	c-4.1,0.9-8.3-1.7-9.2-5.8c-0.9-4.1,1.6-8.3,5.8-9.2c47-10.7,87.4-6.1,119.9,13.8C306.2,294.7,307.4,299.4,305.2,303.1z
	 M320.3,269.4c-2.8,4.5-8.7,6-13.2,3.2c-33.2-20.4-83.8-26.3-123-14.4c-5.1,1.5-10.5-1.3-12-6.4c-1.5-5.1,1.3-10.5,6.4-12
	c44.8-13.6,100.6-7,138.7,16.4C321.6,259,323.1,264.9,320.3,269.4L320.3,269.4z M321.6,234.4c-39.8-23.6-105.4-25.8-143.4-14.3
	c-6.1,1.9-12.6-1.6-14.4-7.7c-1.8-6.1,1.6-12.6,7.7-14.4c43.6-13.2,116.1-10.7,161.9,16.5c5.5,3.3,7.3,10.3,4,15.8
	C334.1,235.9,327,237.7,321.6,234.4L321.6,234.4z"/>
</svg>
