<?xml version="1.0" encoding="utf-8"?>
<!-- Generator: Adobe Illustrator 24.2.3, SVG Export Plug-In . SVG Version: 6.00 Build 0)  -->
<svg version="1.1" id="Layer_1" xmlns="http://www.w3.org/2000/svg" xmlns:xlink="http://www.w3.org/1999/xlink" x="0px" y="0px"
	 viewBox="0 0 500 500" style="enable-background:new 0 0 500 500;" xml:space="preserve">
<style type="text/css">
	.st0{fill:#FFFFFF;}
	.st1{fill:none;stroke:#FFFFFF;stroke-width:6;stroke-miterlimit:10;}
</style>
<g>
	<circle class="st0" cx="139.5" cy="443.5" r="24.5"/>
</g>
<g>
	<path class="st0" d="M212.5,423c11.3,0,20.5,9.2,20.5,20.5s-9.2,20.5-20.5,20.5s-20.5-9.2-20.5-20.5S201.2,423,212.5,423
		 M212.5,419c-13.5,0-24.5,11-24.5,24.5s11,24.5,24.5,24.5s24.5-11,24.5-24.5S226,419,212.5,419L212.5,419z"/>
</g>
<g>
	<path class="st0" d="M285.5,423c11.3,0,20.5,9.2,20.5,20.5s-9.2,20.5-20.5,20.5s-20.5-9.2-20.5-20.5S274.2,423,285.5,423
		 M285.5,419c-13.5,0-24.5,11-24.5,24.5s11,24.5,24.5,24.5s24.5-11,24.5-24.5S299,419,285.5,419L285.5,419z"/>
</g>
<g>
	<path class="st0" d="M358.5,423c11.3,0,20.5,9.2,20.5,20.5s-9.2,20.5-20.5,20.5s-20.5-9.2-20.5-20.5S347.2,423,358.5,423
		 M358.5,419c-13.5,0-24.5,11-24.5,24.5s11,24.5,24.5,24.5s24.5-11,24.5-24.5S372,419,358.5,419L358.5,419z"/>
</g>
<polyline class="st1" points="51.3,250 28,220.9 52,191 "/>
<polyline class="st1" points="450.1,191.3 473.4,220.3 449.4,250.3 "/>
</svg>
